<svg width="188" height="47" viewBox="0 0 188 47" fill="none" xmlns="http://www.w3.org/2000/svg">
<path d="M1.74219 19.9922L20.5391 28.4766V29.8594L0.921875 20.9766V19.9922H1.74219ZM20.5391 12.3047L1.76562 20.7891H0.921875V19.8047L20.5391 10.9453V12.3047ZM28.0625 10.6406H29.3281V39.0234C29.3281 40.5703 29.0625 41.8828 28.5312 42.9609C28 44.0391 27.2344 44.8516 26.2344 45.3984C25.25 45.9609 24.0547 46.2422 22.6484 46.2422C22.2578 46.2422 21.875 46.2031 21.5 46.125C21.1094 46.0469 20.7266 45.9297 20.3516 45.7734L20.4219 44.5547C20.6719 44.6484 21 44.7422 21.4062 44.8359C21.7969 44.9297 22.2109 44.9766 22.6484 44.9766C23.8047 44.9766 24.7812 44.7422 25.5781 44.2734C26.3906 43.8047 27.0078 43.125 27.4297 42.2344C27.8516 41.3438 28.0625 40.2734 28.0625 39.0234V10.6406ZM27.5234 2.71875C27.5234 2.35938 27.6484 2.05469 27.8984 1.80469C28.1484 1.53906 28.4531 1.40625 28.8125 1.40625C29.1719 1.40625 29.4766 1.53906 29.7266 1.80469C29.9922 2.05469 30.125 2.35938 30.125 2.71875C30.125 3.07812 29.9922 3.38281 29.7266 3.63281C29.4766 3.88281 29.1719 4.00781 28.8125 4.00781C28.4531 4.00781 28.1484 3.88281 27.8984 3.63281C27.6484 3.38281 27.5234 3.07812 27.5234 2.71875ZM36.2656 23.8125V22.8281C36.2656 20.9688 36.5312 19.2656 37.0625 17.7188C37.6094 16.1719 38.3672 14.8359 39.3359 13.7109C40.3203 12.5859 41.4922 11.7188 42.8516 11.1094C44.2109 10.4844 45.7109 10.1719 47.3516 10.1719C49.0078 10.1719 50.5156 10.4844 51.875 11.1094C53.2344 11.7188 54.4062 12.5859 55.3906 13.7109C56.375 14.8359 57.1328 16.1719 57.6641 17.7188C58.1953 19.2656 58.4609 20.9688 58.4609 22.8281V23.8125C58.4609 25.6719 58.1953 27.375 57.6641 28.9219C57.1328 30.4688 56.375 31.8047 55.3906 32.9297C54.4219 34.0547 53.2578 34.9297 51.8984 35.5547C50.5391 36.1641 49.0391 36.4688 47.3984 36.4688C45.7422 36.4688 44.2344 36.1641 42.875 35.5547C41.5156 34.9297 40.3438 34.0547 39.3594 32.9297C38.375 31.8047 37.6094 30.4688 37.0625 28.9219C36.5312 27.375 36.2656 25.6719 36.2656 23.8125ZM37.5312 22.8281V23.8125C37.5312 25.3281 37.75 26.7734 38.1875 28.1484C38.6406 29.5078 39.2891 30.7188 40.1328 31.7812C40.9766 32.8438 42.0078 33.6797 43.2266 34.2891C44.4453 34.8984 45.8359 35.2031 47.3984 35.2031C48.9453 35.2031 50.3203 34.8984 51.5234 34.2891C52.7422 33.6797 53.7734 32.8438 54.6172 31.7812C55.4609 30.7188 56.1016 29.5078 56.5391 28.1484C56.9766 26.7734 57.1953 25.3281 57.1953 23.8125V22.8281C57.1953 21.3438 56.9766 19.9219 56.5391 18.5625C56.1016 17.2031 55.4531 15.9922 54.5938 14.9297C53.75 13.8516 52.7188 13 51.5 12.375C50.2812 11.75 48.8984 11.4375 47.3516 11.4375C45.8047 11.4375 44.4219 11.75 43.2031 12.375C42 13 40.9688 13.8516 40.1094 14.9297C39.2656 15.9922 38.625 17.2031 38.1875 18.5625C37.75 19.9219 37.5312 21.3438 37.5312 22.8281ZM65.8906 0V36H64.625V0H65.8906ZM65.6797 21.1406L65 19.8047C65.1562 18.5547 65.5 17.3594 66.0312 16.2188C66.5625 15.0625 67.2578 14.0312 68.1172 13.125C68.9766 12.2188 69.9766 11.5 71.1172 10.9688C72.2578 10.4375 73.5156 10.1719 74.8906 10.1719C76.1719 10.1719 77.3125 10.3516 78.3125 10.7109C79.3125 11.0547 80.1562 11.6094 80.8438 12.375C81.5312 13.125 82.0547 14.0938 82.4141 15.2812C82.7734 16.4688 82.9531 17.9062 82.9531 19.5938V36H81.6875V19.5938C81.6875 17.4375 81.3906 15.7734 80.7969 14.6016C80.2188 13.4141 79.4141 12.5859 78.3828 12.1172C77.3516 11.6484 76.1641 11.4141 74.8203 11.4141C73.2266 11.4141 71.8594 11.7734 70.7188 12.4922C69.5938 13.1953 68.6641 14.0781 67.9297 15.1406C67.2109 16.2031 66.6641 17.2812 66.2891 18.375C65.9297 19.4688 65.7266 20.3906 65.6797 21.1406ZM106.836 31.2422V18.1406C106.836 16.7344 106.531 15.5312 105.922 14.5312C105.328 13.5312 104.453 12.7656 103.297 12.2344C102.156 11.7031 100.758 11.4375 99.1016 11.4375C97.5703 11.4375 96.1875 11.7109 94.9531 12.2578C93.7344 12.7891 92.7656 13.5234 92.0469 14.4609C91.3438 15.3984 90.9922 16.4531 90.9922 17.625L89.7266 17.5781C89.7266 16.5938 89.9531 15.6562 90.4062 14.7656C90.875 13.875 91.5234 13.0859 92.3516 12.3984C93.1953 11.7109 94.1875 11.1719 95.3281 10.7812C96.4844 10.375 97.7422 10.1719 99.1016 10.1719C100.867 10.1719 102.422 10.4688 103.766 11.0625C105.125 11.6562 106.188 12.5469 106.953 13.7344C107.719 14.9219 108.102 16.4062 108.102 18.1875V30.8906C108.102 31.7969 108.156 32.7109 108.266 33.6328C108.391 34.5547 108.555 35.2734 108.758 35.7891V36H107.305C107.148 35.3906 107.031 34.6562 106.953 33.7969C106.875 32.9219 106.836 32.0703 106.836 31.2422ZM107.398 21.8438L107.445 23.1328H100.836C99.1953 23.1328 97.7266 23.2969 96.4297 23.625C95.1328 23.9375 94.0312 24.3828 93.125 24.9609C92.2188 25.5391 91.5234 26.2266 91.0391 27.0234C90.5547 27.8203 90.3125 28.7031 90.3125 29.6719C90.3125 30.6875 90.5859 31.6172 91.1328 32.4609C91.6953 33.3047 92.4688 33.9766 93.4531 34.4766C94.4375 34.9766 95.5703 35.2266 96.8516 35.2266C98.6328 35.2266 100.211 34.9375 101.586 34.3594C102.961 33.7656 104.125 32.9375 105.078 31.875C106.031 30.8125 106.758 29.5547 107.258 28.1016L107.82 29.2734C107.523 30.1484 107.078 31.0156 106.484 31.875C105.906 32.7188 105.164 33.4922 104.258 34.1953C103.352 34.8828 102.281 35.4375 101.047 35.8594C99.8281 36.2656 98.4297 36.4688 96.8516 36.4688C95.2734 36.4688 93.8984 36.1797 92.7266 35.6016C91.5547 35.0078 90.6484 34.1953 90.0078 33.1641C89.3672 32.1172 89.0469 30.9219 89.0469 29.5781C89.0469 28.4531 89.3125 27.4219 89.8438 26.4844C90.375 25.5312 91.1406 24.7109 92.1406 24.0234C93.1562 23.3203 94.3906 22.7812 95.8438 22.4062C97.2969 22.0312 98.9375 21.8438 100.766 21.8438H107.398ZM117.547 16.0547V36H116.281V10.6406H117.547V16.0547ZM117.336 21.1406L116.656 19.8047C116.812 18.5547 117.156 17.3594 117.688 16.2188C118.219 15.0625 118.914 14.0312 119.773 13.125C120.633 12.2188 121.633 11.5 122.773 10.9688C123.914 10.4375 125.172 10.1719 126.547 10.1719C127.828 10.1719 128.969 10.3516 129.969 10.7109C130.969 11.0547 131.812 11.6094 132.5 12.375C133.188 13.125 133.711 14.0938 134.07 15.2812C134.43 16.4688 134.609 17.9062 134.609 19.5938V36H133.344V19.5938C133.344 17.4375 133.047 15.7734 132.453 14.6016C131.875 13.4141 131.07 12.5859 130.039 12.1172C129.008 11.6484 127.82 11.4141 126.477 11.4141C124.883 11.4141 123.516 11.7734 122.375 12.4922C121.25 13.1953 120.32 14.0781 119.586 15.1406C118.867 16.2031 118.32 17.2812 117.945 18.375C117.586 19.4688 117.383 20.3906 117.336 21.1406ZM143.844 16.0547V36H142.578V10.6406H143.844V16.0547ZM143.633 21.1406L142.953 19.8047C143.109 18.5547 143.453 17.3594 143.984 16.2188C144.516 15.0625 145.211 14.0312 146.07 13.125C146.93 12.2188 147.93 11.5 149.07 10.9688C150.211 10.4375 151.469 10.1719 152.844 10.1719C154.125 10.1719 155.266 10.3516 156.266 10.7109C157.266 11.0547 158.109 11.6094 158.797 12.375C159.484 13.125 160.008 14.0938 160.367 15.2812C160.727 16.4688 160.906 17.9062 160.906 19.5938V36H159.641V19.5938C159.641 17.4375 159.344 15.7734 158.75 14.6016C158.172 13.4141 157.367 12.5859 156.336 12.1172C155.305 11.6484 154.117 11.4141 152.773 11.4141C151.18 11.4141 149.812 11.7734 148.672 12.4922C147.547 13.1953 146.617 14.0781 145.883 15.1406C145.164 16.2031 144.617 17.2812 144.242 18.375C143.883 19.4688 143.68 20.3906 143.633 21.1406ZM186.242 20.7656L167.516 12.2578V10.875L187.109 19.7344V20.7422L186.242 20.7656ZM167.516 28.4062L186.312 19.875H187.109V20.9062L167.516 29.7891V28.4062Z" fill="url(#paint0_linear_431_34)"/>
<defs>
<linearGradient id="paint0_linear_431_34" x1="94.5" y1="-1" x2="94.5" y2="53.5152" gradientUnits="userSpaceOnUse">
<stop stop-color="#DEDEDE"/>
<stop offset="1"/>
</linearGradient>
</defs>
</svg>