<svg width="716" height="514" viewBox="0 0 716 514" fill="none" xmlns="http://www.w3.org/2000/svg">
<path d="M708.218 194.158C706.28 192.619 688.189 178.959 650.037 178.959C639.963 179.003 629.91 179.867 619.976 181.543C612.592 130.931 570.748 106.255 568.872 105.148L558.627 99.2402L551.889 108.963C543.451 122.024 537.291 136.422 533.675 151.545C526.844 180.436 530.998 207.572 545.674 230.771C527.952 240.647 499.523 243.078 493.77 243.293H23.0909C10.7969 243.31 0.820894 253.245 0.753894 265.538C0.204894 306.772 7.19089 347.76 21.3679 386.484C37.5819 429.005 61.7039 460.326 93.0869 479.494C128.254 501.031 185.389 513.338 250.154 513.338C279.412 513.43 308.615 510.782 337.38 505.431C377.366 498.089 415.843 484.113 451.219 464.079C480.368 447.199 506.602 425.725 528.907 400.483C566.197 358.27 588.412 311.257 604.933 269.476H611.517C652.345 269.476 677.452 253.138 691.297 239.447C700.498 230.715 707.681 220.078 712.342 208.28L715.265 199.727L708.218 194.158Z" fill="#d8b4fe"/>
<path d="M66.7189 229.51H129.792C132.834 229.51 135.299 227.044 135.299 224.003V167.821C135.316 164.779 132.864 162.3 129.823 162.283C129.813 162.283 129.802 162.283 129.792 162.283H66.7189C63.6769 162.283 61.2119 164.749 61.2119 167.79V167.821V224.002C61.2119 227.044 63.6769 229.51 66.7189 229.51Z" fill="#d8b4fe"/>
<path d="M153.637 229.51H216.71C219.752 229.51 222.217 227.044 222.217 224.003V167.821C222.234 164.779 219.782 162.3 216.74 162.283C216.73 162.283 216.719 162.283 216.709 162.283H153.636C150.577 162.283 148.098 164.762 148.098 167.821V224.002C148.116 227.049 150.59 229.51 153.637 229.51Z" fill="#d8b4fe"/>
<path d="M241.877 229.51H304.95C307.992 229.51 310.457 227.044 310.457 224.003V167.821C310.474 164.779 308.022 162.3 304.98 162.283C304.97 162.283 304.959 162.283 304.949 162.283H241.876C238.834 162.283 236.369 164.749 236.369 167.79V167.821V224.002C236.37 227.044 238.836 229.51 241.877 229.51Z" fill="#d8b4fe"/>
<path d="M329.072 229.51H392.145C395.192 229.51 397.666 227.05 397.683 224.003V167.821C397.683 164.762 395.204 162.283 392.145 162.283H329.072C326.03 162.283 323.565 164.749 323.565 167.79V167.821V224.002C323.565 227.044 326.031 229.51 329.072 229.51Z" fill="#d8b4fe"/>
<path d="M153.637 148.684H216.71C219.756 148.667 222.217 146.192 222.217 143.146V86.965C222.217 83.923 219.751 81.458 216.71 81.458H153.637C150.591 81.458 148.116 83.918 148.099 86.965V143.146C148.116 146.198 150.585 148.667 153.637 148.684Z" fill="#d8b4fe"/>
<path d="M241.877 148.684H304.95C307.996 148.667 310.457 146.192 310.457 143.146V86.965C310.457 83.923 307.991 81.458 304.95 81.458H241.877C238.835 81.458 236.37 83.924 236.37 86.965V143.146C236.37 146.192 238.831 148.667 241.877 148.684Z" fill="#d8b4fe"/>
<path d="M329.072 148.684H392.145C395.197 148.667 397.666 146.198 397.683 143.146V86.965C397.666 83.918 395.192 81.458 392.145 81.458H329.072C326.03 81.458 323.565 83.924 323.565 86.965V143.146C323.565 146.192 326.026 148.667 329.072 148.684Z" fill="#d8b4fe"/>
<path d="M329.072 67.8281H392.145C395.192 67.8281 397.666 65.3671 397.683 62.3211V6.10807C397.666 3.06107 395.192 0.601074 392.145 0.601074H329.072C326.03 0.601074 323.565 3.06607 323.565 6.10807V62.3201C323.565 65.3621 326.031 67.8281 329.072 67.8281Z" fill="#d8b4fe"/>
<path d="M417.036 229.51H480.109C483.156 229.51 485.63 227.05 485.647 224.003V167.821C485.647 164.762 483.168 162.283 480.109 162.283H417.036C413.995 162.283 411.529 164.749 411.529 167.79V167.821V224.002C411.529 227.044 413.995 229.51 417.036 229.51Z" fill="#d8b4fe"/>
</svg>