<svg width="62" height="60" viewBox="0 0 62 60" fill="none" xmlns="http://www.w3.org/2000/svg">
<path d="M56.3205 46.4348C52.9847 46.3447 50.4356 46.6544 48.2573 47.573C47.6379 47.8344 46.651 47.8409 46.5496 48.6171C46.8899 48.9735 46.9437 49.506 47.2132 49.9443C47.7337 50.7865 48.6129 51.9151 49.3955 52.5055C50.2514 53.1514 51.133 53.8432 52.0524 54.4039C53.6853 55.3997 55.5081 55.9684 57.0798 56.965C58.0065 57.5522 58.9267 58.2923 59.8309 58.9567C60.2773 59.2849 60.5789 59.7949 61.1581 60V59.9051C60.8524 59.5166 60.7744 58.9824 60.4945 58.5778L59.2613 57.3447C58.0548 55.7359 56.5248 54.3387 54.8975 53.1699C53.6001 52.2385 50.6954 50.9804 50.1541 49.4698L50.0591 49.3748C50.9794 49.2703 52.0564 48.9381 52.9067 48.7112C54.3329 48.3291 55.6078 48.4273 57.0815 48.0476L59.0739 47.4781V47.0984C58.3291 46.3343 57.7982 45.3231 56.9865 44.6322C54.8629 42.8223 52.5439 41.0164 50.1573 39.5082C48.8333 38.6717 47.1971 38.1295 45.7935 37.4208C45.3213 37.1827 44.492 37.0589 44.1807 36.6615C43.4439 35.722 43.0425 34.5299 42.4738 33.4439C41.2833 31.1514 40.1137 28.6466 39.0583 26.2342C38.3384 24.5892 37.8678 22.9668 36.9718 21.4907C32.6643 14.4089 28.027 10.1344 20.8454 5.93387C19.317 5.041 17.4774 4.68707 15.5324 4.22615L12.4017 4.03632C11.7646 3.77087 11.1018 2.99061 10.5034 2.61255C8.12398 1.10835 2.0211 -2.15988 0.258685 2.12992C-0.853784 4.84312 1.92136 7.49036 2.91477 8.86586C3.61137 9.83113 4.50424 10.9114 5.00135 11.9965C5.32874 12.7092 5.38585 13.4243 5.66578 14.1788C6.35514 16.0289 6.95522 18.0584 7.84728 19.7758C8.29774 20.6445 8.79485 21.5599 9.36516 22.3369C9.71507 22.8139 10.3143 23.0239 10.4084 23.7607C9.82285 24.5812 9.78907 25.8521 9.45928 26.8914C7.97679 31.5665 8.53583 37.3766 10.6924 40.8371C11.3544 41.8989 12.9125 44.1769 15.0562 43.3033C16.9304 42.5392 16.5041 40.1743 17.0487 38.0861C17.1693 37.6115 17.0953 37.2656 17.3334 36.9479V37.0428L19.0411 40.4574C20.304 42.4925 22.5483 44.6201 24.4482 46.0559C25.4336 46.8 26.2179 48.087 27.484 48.5222V48.4273H27.3891C27.1421 48.0412 26.756 47.8827 26.4399 47.5746C25.6975 46.8466 24.8714 45.9417 24.2576 45.1084C22.5282 42.7612 21.0014 40.1936 19.6098 37.519C18.9454 36.2424 18.3671 34.8339 17.808 33.5348C17.5924 33.0337 17.5949 32.2768 17.1444 32.017C16.5307 32.9693 15.6265 33.7383 15.1519 34.8629C14.3926 36.6599 14.2945 38.851 14.0137 41.1242C13.8472 41.1838 13.9212 41.1427 13.8239 41.2191C12.5031 40.9006 12.0381 39.5404 11.5475 38.3732C10.3055 35.4211 10.0754 30.6704 11.1678 27.2743C11.4493 26.3959 12.7283 23.6272 12.2111 22.8156C11.9641 22.0055 11.1493 21.5285 10.6932 20.9172C10.1301 20.153 9.56546 19.1443 9.17533 18.2611C8.15858 15.9606 7.68399 13.3785 6.61415 11.0514C6.10256 9.93972 5.23864 8.81519 4.52756 7.83383C3.74087 6.73987 2.86008 5.93226 2.25116 4.61628C2.03397 4.14571 1.73956 3.39361 2.06132 2.90857C2.09204 2.7692 2.16198 2.64154 2.26289 2.54063C2.3638 2.43972 2.49147 2.36978 2.63083 2.33906C3.18103 1.91515 4.71418 2.47983 5.28691 2.71873C6.8072 3.35098 8.07814 3.95266 9.36677 4.80612C9.98615 5.20831 10.6112 6.00948 11.3584 6.22988H12.2111C13.5464 6.53716 15.0425 6.32641 16.2893 6.70447C18.495 7.37453 20.4705 8.41782 22.2659 9.5504C27.7342 13.0028 32.2041 17.9176 35.2624 23.7881C35.7547 24.7316 35.9671 25.6333 36.4006 26.634C37.275 28.645 38.3762 30.7307 39.2466 32.7047C40.1153 34.6755 40.9599 36.6623 42.1874 38.3016C42.8325 39.1623 45.3245 39.6257 46.4563 40.1035C47.2502 40.4389 48.5501 40.7888 49.3022 41.2417C50.738 42.108 52.1296 43.14 53.477 44.0892C54.1503 44.5638 56.2199 45.6039 56.3229 46.4605L56.3205 46.4348Z" fill="#d8b4fe"/>
<path fill-rule="evenodd" clip-rule="evenodd" d="M13.9182 10.2921C13.2224 10.2793 12.7309 10.3677 12.2104 10.482V10.5769H12.3054C12.6368 11.259 13.2224 11.6974 13.6326 12.2846L14.5818 14.2763L14.6767 14.1814C15.2639 13.7671 15.5334 13.1051 15.5293 12.094C15.2937 11.8462 15.2591 11.5357 15.0548 11.2397C14.7837 10.8456 14.2504 10.6219 13.9166 10.2905L13.9182 10.2921Z" fill="#d8b4fe"/>
</svg>